<svg id="Layer_3" height="512" viewBox="0 0 64 64" width="512" xmlns="http://www.w3.org/2000/svg" data-name="Layer 3"><g fill="#00cec8"><path d="m42.456 38.444h2v10.024h-2z" transform="matrix(.707 -.707 .707 .707 -18 43.456)"/><path d="m19.414 15.07h2v10.688h-2z" transform="matrix(.707 -.707 .707 .707 -8.456 20.414)"/><path d="m8.643 35.571h12.757v2h-12.757z" transform="matrix(.966 -.26 .26 .966 -8.983 5.157)"/><path d="m21.024 44.693h8.258v2h-8.258z" transform="matrix(.447 -.894 .894 .447 -26.965 47.756)"/><path d="m42.934 30.334h14.111v2h-14.111z" transform="matrix(.999 -.037 .037 .999 -1.128 1.876)"/><path d="m35.494 17.898h7.424v2h-7.424z" transform="matrix(.482 -.876 .876 .482 3.75 44.139)"/></g><circle cx="53" cy="53" fill="#18efe4" r="9"/><path d="m53 44a8.973 8.973 0 0 0 -6.334 2.608 9 9 0 0 0 14.668 9.784 9 9 0 0 0 -8.334-12.392z" fill="#99fff7"/><circle cx="53" cy="50" fill="#f8ae48" r="3"/><path d="m48 58h10a5 5 0 0 0 -5-5 5 5 0 0 0 -5 5z" fill="#df9743"/><circle cx="32" cy="32" fill="#18efe4" r="12"/><path d="m32 20a11.93 11.93 0 0 0 -7.419 2.581 11.988 11.988 0 0 0 16.838 16.838 11.988 11.988 0 0 0 -9.419-19.419z" fill="#99fff7"/><circle cx="32" cy="28" fill="#f96c4b" r="4"/><path d="m26 39h12a6 6 0 0 0 -6-6 6 6 0 0 0 -6 6z" fill="#ce4c32"/><circle cx="11" cy="11" fill="#18efe4" r="9"/><path d="m11 2a8.973 8.973 0 0 0 -6.334 2.608 9 9 0 0 0 14.668 9.784 9 9 0 0 0 -8.334-12.392z" fill="#99fff7"/><circle cx="11" cy="8" fill="#f8ae48" r="3"/><path d="m6 16h10a5 5 0 0 0 -5-5 5 5 0 0 0 -5 5z" fill="#df9743"/><circle cx="43" cy="12" fill="#ce4c32" r="5"/><circle cx="21" cy="54" fill="#ce4c32" r="6"/><circle cx="6" cy="39" fill="#ce4c32" r="4"/><circle cx="59" cy="31" fill="#ce4c32" r="3"/></svg>