<svg id="Flat" height="512" viewBox="0 0 512 512" width="512" xmlns="http://www.w3.org/2000/svg"><path d="m136 24h352v432h-352z" fill="#85bb40"/><circle cx="312" cy="104" fill="#f6bc1b" r="40"/><path d="m176 168h96v32h-96z" fill="#0093b9"/><path d="m352 168h96v32h-96z" fill="#0093b9"/><path d="m304 144h16v280h-16z" fill="#e3e4e2"/><path d="m272 176h80v16h-80z" fill="#e3e4e2"/><path d="m352 232h96v32h-96z" fill="#0093b9"/><path d="m312 312h40v16h-40z" fill="#e3e4e2"/><path d="m352 304h96v32h-96z" fill="#0093b9"/><path d="m352 368h96v32h-96z" fill="#0093b9"/><g fill="#e3e4e2"><path d="m176 128h16v16h-16z"/><path d="m208 128h16v16h-16z"/><path d="m400 128h16v16h-16z"/><path d="m432 128h16v16h-16z"/><path d="m392 200h16v32h-16z"/><path d="m392 336h16v32h-16z"/><path d="m216 200h16v24h-16z"/><path d="m317.657 109.657-11.314-11.314 48-48a8 8 0 0 1 5.657-2.343h88v16h-84.687z"/><path d="m392 400h16v24h-16z"/></g><path d="m254.527 347.354 25.473-23-12.286-29.662-34.274 1.751-17.885-17.883 1.751-34.274-29.662-12.286-23 25.473h-25.29l-23-25.473-29.66 12.286 1.751 34.274-17.885 17.885-34.274-1.751-12.286 29.662 25.473 23v25.292l-25.473 22.996 12.286 29.662 34.274-1.751 17.885 17.885-1.751 34.274 29.662 12.286 23-25.473h25.292l23 25.473 29.662-12.286-1.751-34.274 17.885-17.885 34.274 1.751 12.282-29.662-25.473-23zm-102.527 44.646a32 32 0 1 1 32-32 32 32 0 0 1 -32 32z" fill="#f6bc1b"/><path d="m152 432a72 72 0 1 1 72-72 72.081 72.081 0 0 1 -72 72zm0-128a56 56 0 1 0 56 56 56.064 56.064 0 0 0 -56-56z" fill="#f79726"/></svg>